<svg xmlns="http://www.w3.org/2000/svg" width="365.307" height="372.865" viewBox="0 0 365.307 372.865">
  <g id="sticker" transform="translate(-4.953)">
    <g id="Group_176" data-name="Group 176" transform="translate(4.953)">
      <path id="Path_1476" data-name="Path 1476" d="M210.1,100a110.1,110.1,0,1,0,110.1,110.1A110.19,110.19,0,0,0,210.1,100Zm0,201.5a91.4,91.4,0,1,1,91.4-91.4A91.515,91.515,0,0,1,210.1,301.5Z" transform="translate(-27.482 -23.703)" fill="#07b4e3"/>
      <path id="Path_1477" data-name="Path 1477" d="M357.635,192.345a12.369,12.369,0,0,1-.076-14.5l6.485-9.232a31.138,31.138,0,0,0-10.682-45.4l-9.919-5.341a12.4,12.4,0,0,1-6.409-12.971l1.907-11.139a31.109,31.109,0,0,0-29.3-36.241l-11.292-.458a12.325,12.325,0,0,1-11.368-8.927L283.7,37.386A31.17,31.17,0,0,0,241.51,17.472L231.134,21.9a12.553,12.553,0,0,1-14.115-3.128l-7.553-8.393a31.067,31.067,0,0,0-46.618.305l-7.325,8.545a12.6,12.6,0,0,1-14.115,3.357l-10.453-4.273a31.747,31.747,0,0,0-11.826-2.365A31.112,31.112,0,0,0,89.145,38.835L86.169,49.746a12.4,12.4,0,0,1-11.292,9.079l-11.216.687A31.035,31.035,0,0,0,34.9,96.135l2.06,11.063a12.4,12.4,0,0,1-6.18,13.123l-9.842,5.493a31.127,31.127,0,0,0-9.995,45.549l6.638,9.079a12.369,12.369,0,0,1,.076,14.5l-6.485,9.232a31.138,31.138,0,0,0,10.682,45.4l9.919,5.341a12.4,12.4,0,0,1,6.409,12.971l-1.907,11.139a31.109,31.109,0,0,0,29.3,36.241l11.292.458a12.325,12.325,0,0,1,11.368,8.927l3.128,10.834a31.17,31.17,0,0,0,42.192,19.914l10.376-4.425a12.553,12.553,0,0,1,14.115,3.128l7.553,8.393a31.067,31.067,0,0,0,46.618-.305l7.4-8.545a12.6,12.6,0,0,1,14.115-3.357l10.453,4.273a31.747,31.747,0,0,0,11.826,2.365,31.112,31.112,0,0,0,29.985-22.889l2.976-10.91a12.4,12.4,0,0,1,11.292-9.079l11.292-.687a31.035,31.035,0,0,0,28.764-36.623l-2.06-11.063a12.4,12.4,0,0,1,6.18-13.123l9.842-5.493a31.127,31.127,0,0,0,9.995-45.549ZM351.3,222.483a12.312,12.312,0,0,1-6.1,8.164l-9.842,5.493a31.053,31.053,0,0,0-15.488,32.808l2.06,11.063a12.164,12.164,0,0,1-2.442,9.919,12.318,12.318,0,0,1-9.079,4.73l-11.216.687a31.039,31.039,0,0,0-28.23,22.813l-2.976,10.834a12.409,12.409,0,0,1-11.979,9.156,12.723,12.723,0,0,1-4.73-.916l-10.453-4.273A31.747,31.747,0,0,0,229,330.6a31.231,31.231,0,0,0-23.5,10.682l-7.4,8.469a12.423,12.423,0,0,1-18.617.153l-7.553-8.393a31.223,31.223,0,0,0-23.194-10.376,30.777,30.777,0,0,0-12.284,2.518l-10.376,4.425a12.154,12.154,0,0,1-4.883.992,12.429,12.429,0,0,1-11.9-8.927L106.159,319.3a31.175,31.175,0,0,0-28.535-22.431l-11.292-.458a12.39,12.39,0,0,1-11.673-14.42l1.907-11.139a31.044,31.044,0,0,0-16.022-32.579l-9.919-5.341a12.212,12.212,0,0,1-6.256-8.088,11.964,11.964,0,0,1,1.984-9.995l6.485-9.232a31.044,31.044,0,0,0-.305-36.317l-6.638-9.079a12,12,0,0,1-2.06-9.995,12.312,12.312,0,0,1,6.1-8.164l9.842-5.493a31.053,31.053,0,0,0,15.488-32.808L53.285,92.777a12.165,12.165,0,0,1,2.442-9.919,12.318,12.318,0,0,1,9.079-4.73l11.216-.687a31.116,31.116,0,0,0,28.23-22.813l2.976-10.911a12.409,12.409,0,0,1,11.979-9.156,12.723,12.723,0,0,1,4.73.916l10.453,4.273a31.747,31.747,0,0,0,11.826,2.365,31.23,31.23,0,0,0,23.5-10.682l7.4-8.469a12.423,12.423,0,0,1,18.617-.153l7.553,8.393A31.223,31.223,0,0,0,226.48,41.582a30.777,30.777,0,0,0,12.284-2.518l10.376-4.425a12.155,12.155,0,0,1,4.883-.992,12.429,12.429,0,0,1,11.9,8.927l3.128,10.834a31.175,31.175,0,0,0,28.535,22.431l11.292.458a12.322,12.322,0,0,1,9.156,4.578,12.152,12.152,0,0,1,2.594,9.842l-1.907,11.139a31.044,31.044,0,0,0,16.022,32.579l9.919,5.341a12.41,12.41,0,0,1,4.349,18.082l-6.485,9.232a31.044,31.044,0,0,0,.305,36.317l6.638,9.079A13.429,13.429,0,0,1,351.3,222.483Z" transform="translate(-4.953 0)" fill="#07b4e3"/>
      <path id="Path_1478" data-name="Path 1478" d="M258.014,203.767l-40.9,40.666-13.276-13.352a9.361,9.361,0,0,0-13.276,13.2l19.914,19.99a9.35,9.35,0,0,0,6.638,2.747h0a9.306,9.306,0,0,0,6.562-2.747l47.533-47.228a9.36,9.36,0,1,0-13.2-13.276Z" transform="translate(-48.313 -47.663)" fill="#07b4e3"/>
    </g>
  </g>
</svg>
