<svg xmlns="http://www.w3.org/2000/svg" width="400" height="431.76" viewBox="0 0 400 431.76">
  <g id="Creative_" data-name="Creative " transform="translate(-15.88)">
    <g id="Group_103" data-name="Group 103">
      <g id="Group_102" data-name="Group 102">
        <path id="Path_1437" data-name="Path 1437" d="M215.88,85.12A112.959,112.959,0,0,0,103,198a128.48,128.48,0,0,0,53.36,102.48V382a8,8,0,0,0,.56,2.72v.64a8.034,8.034,0,0,0,.48.96l28.16,41.92a8,8,0,0,0,6.64,3.52h46.56a8,8,0,0,0,6.64-3.52l28.16-41.92a8.034,8.034,0,0,0,.48-.96v-.64a8.005,8.005,0,0,0,.56-2.72V300.48A128.477,128.477,0,0,0,327.96,198,112.96,112.96,0,0,0,215.88,85.12ZM234.92,416H196.84L179.4,390.08h72.88Zm-62.48-41.92v-21.2h86.88l.08,21.2ZM263,289.52v.24a8,8,0,0,0-3.6,6.72v40.64H172.44V296a8,8,0,0,0-3.6-6.72,112,112,0,0,1-49.76-91.52,96.88,96.88,0,0,1,193.68,0A112,112,0,0,1,263,289.52Z" fill="#07b4e3"/>
      </g>
    </g>
    <g id="Group_105" data-name="Group 105">
      <g id="Group_104" data-name="Group 104">
        <path id="Path_1438" data-name="Path 1438" d="M219.08,121.36a8,8,0,0,0,0,16,60.32,60.32,0,0,1,60.24,60.24,8,8,0,0,0,16,0A76.32,76.32,0,0,0,219.08,121.36Z" fill="#07b4e3"/>
      </g>
    </g>
    <g id="Group_107" data-name="Group 107">
      <g id="Group_106" data-name="Group 106">
        <path id="Path_1439" data-name="Path 1439" d="M81.48,189.6H23.88a8,8,0,0,0,0,16h57.6a8,8,0,0,0,8-8h0A8,8,0,0,0,81.48,189.6Z" fill="#07b4e3"/>
      </g>
    </g>
    <g id="Group_109" data-name="Group 109">
      <g id="Group_108" data-name="Group 108">
        <path id="Path_1440" data-name="Path 1440" d="M407.88,189.6h-57.6a8,8,0,0,0,0,16h57.6a8,8,0,0,0,0-16Z" fill="#07b4e3"/>
      </g>
    </g>
    <g id="Group_111" data-name="Group 111">
      <g id="Group_110" data-name="Group 110">
        <path id="Path_1441" data-name="Path 1441" d="M127.313,287.12a8,8,0,0,0-12.153,0v-.16L74.28,328a8,8,0,1,0,11.28,11.28l40.88-40.88A8,8,0,0,0,127.313,287.12Z" fill="#07b4e3"/>
      </g>
    </g>
    <g id="Group_113" data-name="Group 113">
      <g id="Group_112" data-name="Group 112">
        <path id="Path_1442" data-name="Path 1442" d="M356.607,56A8,8,0,0,0,346.2,56L305.32,96.88A8,8,0,0,0,311,110.56l-.08-.08a8,8,0,0,0,5.68-2.32l40.88-40.88A8,8,0,0,0,356.607,56Z" fill="#07b4e3"/>
      </g>
    </g>
    <g id="Group_115" data-name="Group 115">
      <g id="Group_114" data-name="Group 114">
        <path id="Path_1443" data-name="Path 1443" d="M359.067,329.609A7.961,7.961,0,0,0,357.48,328L316.6,286.96a8,8,0,1,0-11.28,11.28l40.88,40.88a8,8,0,1,0,12.867-9.511Z" fill="#07b4e3"/>
      </g>
    </g>
    <g id="Group_117" data-name="Group 117">
      <g id="Group_116" data-name="Group 116">
        <path id="Path_1444" data-name="Path 1444" d="M126.44,96.88,85.56,56A8,8,0,0,0,74.28,67.28l40.88,40.88a8,8,0,0,0,11.28-11.28Z" fill="#07b4e3"/>
      </g>
    </g>
    <g id="Group_119" data-name="Group 119">
      <g id="Group_118" data-name="Group 118">
        <path id="Path_1445" data-name="Path 1445" d="M215.88,0a8,8,0,0,0-8,8V65.84a8,8,0,0,0,7.756,8.236c.081,0,.162,0,.244,0a8,8,0,0,0,8-8V8A8,8,0,0,0,215.88,0Z" fill="#07b4e3"/>
      </g>
    </g>
  </g>
</svg>
