<svg xmlns="http://www.w3.org/2000/svg" width="512.001" height="425.144" viewBox="0 0 512.001 425.144">
  <g id="Printing_solutions" data-name="Printing solutions" transform="translate(0 -43.428)">
    <g id="Group_146" data-name="Group 146">
      <g id="Group_145" data-name="Group 145">
        <path id="Path_1462" data-name="Path 1462" d="M475.934,108.229H380.35V54.285a10.858,10.858,0,0,0-10.857-10.857H142.507A10.858,10.858,0,0,0,131.65,54.285V108.23H36.066A36.106,36.106,0,0,0,0,144.3V317.133A36.108,36.108,0,0,0,36.066,353.2H131.65V457.715a10.858,10.858,0,0,0,10.857,10.857H369.494a10.858,10.858,0,0,0,10.857-10.857V353.2h95.584A36.108,36.108,0,0,0,512,317.133V144.3A36.11,36.11,0,0,0,475.934,108.229Zm-95.585,21.713h25.9v30.385h-25.9Zm-226.986-64.8H358.636v95.186H153.363Zm-47.61,64.8h25.9v30.385h-25.9V129.943ZM358.637,446.858H153.363V303.879H358.636V446.858ZM490.288,317.133h0a14.37,14.37,0,0,1-14.352,14.354H380.35V303.88h19.8a10.857,10.857,0,1,0,0-21.714H111.846a10.857,10.857,0,1,0,0,21.714h19.8v27.607H36.066a14.37,14.37,0,0,1-14.352-14.354V144.3a14.37,14.37,0,0,1,14.352-14.354H84.04v41.241A10.858,10.858,0,0,0,94.9,182.04H417.1a10.858,10.858,0,0,0,10.857-10.857V129.942h47.974A14.37,14.37,0,0,1,490.288,144.3Z" fill="#07b4e3"/>
      </g>
    </g>
    <g id="Group_148" data-name="Group 148">
      <g id="Group_147" data-name="Group 147">
        <circle id="Ellipse_27" data-name="Ellipse 27" cx="13.602" cy="13.602" r="13.602" transform="translate(55.197 205.659)" fill="#07b4e3"/>
      </g>
    </g>
    <g id="Group_150" data-name="Group 150">
      <g id="Group_149" data-name="Group 149">
        <path id="Path_1463" data-name="Path 1463" d="M252.849,386.456h-50.68a10.857,10.857,0,0,0,0,21.714h50.68a10.857,10.857,0,1,0,0-21.714Z" fill="#07b4e3"/>
      </g>
    </g>
    <g id="Group_152" data-name="Group 152">
      <g id="Group_151" data-name="Group 151">
        <path id="Path_1464" data-name="Path 1464" d="M309.831,331.483H202.169a10.857,10.857,0,0,0,0,21.714H309.83a10.857,10.857,0,0,0,0-21.714Z" fill="#07b4e3"/>
      </g>
    </g>
  </g>
</svg>
