<svg xmlns="http://www.w3.org/2000/svg" width="441.458" height="512" viewBox="0 0 441.458 512">
  <g id="Reports" transform="translate(-35.271)">
    <g id="Group_159" data-name="Group 159">
      <g id="Group_158" data-name="Group 158">
        <path id="Path_1468" data-name="Path 1468" d="M399.929,357.333a76.8,76.8,0,1,0,76.8,76.8A76.884,76.884,0,0,0,399.929,357.333Zm0,136.534a59.733,59.733,0,1,1,59.733-59.733A59.806,59.806,0,0,1,399.929,493.867Z" fill="#07b4e3"/>
      </g>
    </g>
    <g id="Group_161" data-name="Group 161">
      <g id="Group_160" data-name="Group 160">
        <path id="Path_1469" data-name="Path 1469" d="M439.529,401.975a8.552,8.552,0,0,0-12.025,1.092l-36.683,44.025L371.829,428.1a8.533,8.533,0,1,0-12.067,12.067l25.6,25.6a8.508,8.508,0,0,0,6.033,2.5c.125,0,.258,0,.383-.008a8.547,8.547,0,0,0,6.175-3.058L440.62,414A8.544,8.544,0,0,0,439.529,401.975Z" fill="#07b4e3"/>
      </g>
    </g>
    <g id="Group_163" data-name="Group 163">
      <g id="Group_162" data-name="Group 162">
        <path id="Path_1470" data-name="Path 1470" d="M403.229,0H61.979C47.837,0,35.271,10.4,35.271,24.5V485.367c0,14.1,12.542,26.633,26.65,26.633H319.079a8.533,8.533,0,1,0,0-17.066H61.921c-4.7,0-9.583-4.883-9.583-9.567V24.5c0-4.683,4.917-7.433,9.642-7.433H403.23c4.65,0,7.508,2.808,7.508,7.4V323.2a8.533,8.533,0,0,0,17.066,0V24.467C427.8,10.392,417.371,0,403.229,0Z" fill="#07b4e3"/>
      </g>
    </g>
    <g id="Group_165" data-name="Group 165">
      <g id="Group_164" data-name="Group 164">
        <path id="Path_1471" data-name="Path 1471" d="M275.271,59.733H189.938a8.533,8.533,0,1,0,0,17.066h85.333a8.533,8.533,0,0,0,0-17.066Z" fill="#07b4e3"/>
      </g>
    </g>
    <g id="Group_167" data-name="Group 167">
      <g id="Group_166" data-name="Group 166">
        <path id="Path_1472" data-name="Path 1472" d="M352.071,119.467H113.138a8.533,8.533,0,0,0,0,17.066H352.071a8.533,8.533,0,0,0,0-17.066Z" fill="#07b4e3"/>
      </g>
    </g>
    <g id="Group_169" data-name="Group 169">
      <g id="Group_168" data-name="Group 168">
        <path id="Path_1473" data-name="Path 1473" d="M352.071,179.2H113.138a8.533,8.533,0,0,0,0,17.066H352.071a8.533,8.533,0,0,0,0-17.066Z" fill="#07b4e3"/>
      </g>
    </g>
    <g id="Group_171" data-name="Group 171">
      <g id="Group_170" data-name="Group 170">
        <path id="Path_1474" data-name="Path 1474" d="M352.071,238.933H113.138a8.533,8.533,0,0,0,0,17.066H352.071a8.533,8.533,0,0,0,0-17.066Z" fill="#07b4e3"/>
      </g>
    </g>
    <g id="Group_173" data-name="Group 173">
      <g id="Group_172" data-name="Group 172">
        <path id="Path_1475" data-name="Path 1475" d="M352.071,298.667H113.138c-4.717,0-9.6,2.75-9.6,7.467v128c0,4.717,4.883,9.6,9.6,9.6H300.871a8.533,8.533,0,1,0,0-17.066H120.6V315.733H342.471V348.8a8.533,8.533,0,0,0,17.066,0V306.133C359.538,301.417,356.787,298.667,352.071,298.667Z" fill="#07b4e3"/>
      </g>
    </g>
  </g>
</svg>
